<svg id="Layer_1" height="512" viewBox="0 0 128 128" width="512" xmlns="http://www.w3.org/2000/svg" xmlns:xlink="http://www.w3.org/1999/xlink" data-name="Layer 1"><linearGradient id="linear-gradient" gradientUnits="userSpaceOnUse" x1="102.721" x2="32.151" y1="95.833" y2="25.262"><stop offset="0" stop-color="#fb657d"/><stop offset="1" stop-color="#fdd743"/></linearGradient><path d="m28.175 31.7a1.751 1.751 0 0 1 .013 2.476c-.18.181-.358.364-.536.549a1.75 1.75 0 0 1 -2.526-2.425c.19-.2.381-.395.575-.59a1.751 1.751 0 0 1 2.474-.01zm76.656 14.718a1.751 1.751 0 0 0 -.928 2.3 46.418 46.418 0 1 1 -81.227-7.824 1.75 1.75 0 0 0 -2.9-1.959 49.9 49.9 0 1 0 87.351 8.416 1.75 1.75 0 0 0 -2.296-.933zm-43.668 58.925a1.75 1.75 0 0 0 0-3.5 35.006 35.006 0 1 1 10.224-68.495 1.75 1.75 0 0 0 1.021-3.348 38.51 38.51 0 1 0 -11.245 75.343zm7.466-.759a1.8 1.8 0 0 0 .356-.036q.957-.2 1.895-.443a1.749 1.749 0 1 0 -.88-3.386c-.568.147-1.144.281-1.723.4a1.75 1.75 0 0 0 .353 3.464zm48.052-77.6a1.751 1.751 0 0 1 -.444 1.724l-20.56 20.56a1.726 1.726 0 0 1 -.183.149 38.5 38.5 0 0 1 -16.129 51.361 1.724 1.724 0 0 1 -.826.209 1.75 1.75 0 0 1 -.83-3.291 34.988 34.988 0 0 0 13.632-48.573l-8.149-1.84-2.946 2.946v.005h-.006l-10.15 10.15a11.018 11.018 0 1 1 -8.927-4.572 1.75 1.75 0 0 1 0 3.5 7.54 7.54 0 1 0 6.408 3.588l-5.171 5.174a1.75 1.75 0 0 1 -2.475-2.474l16.553-16.553a23.392 23.392 0 1 0 5.209 6.375 1.75 1.75 0 1 1 3.056-1.7 27.044 27.044 0 1 1 -5.784-7.151l1.758-1.758-2.452-10.867a1.752 1.752 0 0 1 .469-1.623l5.666-5.665a46.432 46.432 0 0 0 -50.153 2.364 1.75 1.75 0 1 1 -2.032-2.849 49.929 49.929 0 0 1 54.74-2.07l12.34-12.34a1.749 1.749 0 0 1 2.944.851l2.423 10.725 10.725 2.423a1.748 1.748 0 0 1 1.294 1.22zm-5.163 1.5-8.706-1.967a1.751 1.751 0 0 1 -1.322-1.322l-1.967-8.706-17.631 17.627 2.208 9.784 8.76 1.978.038.009.985.222z" fill="url(#linear-gradient)"/></svg>