<?xml version="1.0"?>
<svg xmlns="http://www.w3.org/2000/svg" id="outline" viewBox="0 0 512 512" width="512" height="512"><title>target-goal-mission-success-arrow</title><path d="M495.15525,164.42188A8.00022,8.00022,0,0,0,488,160H432a8.00233,8.00233,0,0,0-5.65723,2.34277L396.68552,192H383.81543C379.61133,94.24,298.77661,16,200,16,98.542,16,16,98.542,16,200A183.91962,183.91962,0,0,0,95.15942,351.12061L80.04883,487.11621A8.00088,8.00088,0,0,0,88,496h24a7.99951,7.99951,0,0,0,7.72949-5.93848L139.47925,416h121.0415l19.74976,74.06152A7.99951,7.99951,0,0,0,288,496h24a8.00088,8.00088,0,0,0,7.95117-8.88379l-15.11059-135.9956A183.9747,183.9747,0,0,0,383.81543,208h12.87009l29.65723,29.65723A8.00233,8.00233,0,0,0,432,240h56a8.00013,8.00013,0,0,0,6.40039-12.7998L474,200l20.40039-27.2002A8.00093,8.00093,0,0,0,495.15525,164.42188ZM105.85352,480h-8.915l13.27173-119.44751a183.21023,183.21023,0,0,0,24.44409,11.447Zm37.89233-80,6.11841-22.9436a184.47246,184.47246,0,0,0,100.27148,0L256.25415,400Zm159.31567,80h-8.915L265.3457,371.99951a183.21023,183.21023,0,0,0,24.44409-11.447ZM200,368c-92.63574,0-168-75.36426-168-168S107.36426,32,200,32c89.95361,0,163.6145,71.06494,167.80518,160H335.7583C331.60254,120.71973,272.3042,64,200,64,125.00977,64,64,125.00977,64,200s61.00977,136,136,136c72.3042,0,131.60254-56.71973,135.7583-128h32.04688C363.6145,296.93506,289.95361,368,200,368Zm87.63257-176a88,88,0,1,0,0,16h32.09448a120,120,0,1,1,0-16Zm-48.4375,0a40,40,0,1,0,0,16h32.34985a72,72,0,1,1,0-16ZM200,192a8,8,0,0,0,0,16h22.62378a24,24,0,1,1,0-16Zm257.59958,12.7998L472,224H435.31345l-16-16H440V192H419.31345l16-16H472l-14.4004,19.2002A8.001,8.001,0,0,0,457.59958,204.7998Z"/></svg>
