<svg height="458pt" viewBox="-44 0 458 458.69674" width="458pt" xmlns="http://www.w3.org/2000/svg"><path d="m360 95.777344v163.410156c0 38.96875-26.0625 88.179688-58.222656 110.101562l-116.429688 79.40625-116.429687-79.40625c-32.160157-21.921874-58.21875-71.371093-58.21875-110.101562v-163.648438l174.648437-85.542968zm-58.179688 133.570312c-.003906-64.320312-52.148437-116.457031-116.46875-116.457031-64.320312.003906-116.460937 52.144531-116.460937 116.464844 0 64.316406 52.140625 116.460937 116.460937 116.460937 64.320313.003906 116.464844-52.136718 116.46875-116.457031zm0 0" fill="#fedb41"/><path d="m301.820312 229.347656c0 64.324219-52.148437 116.46875-116.472656 116.46875-64.324218 0-116.46875-52.144531-116.46875-116.46875 0-64.324218 52.144532-116.46875 116.46875-116.46875 64.324219 0 116.472656 52.144532 116.472656 116.46875zm0 0" fill="#00acea"/><g fill="#083863"><path d="m364.582031 86.800781-174.734375-85.78125c-2.792968-1.359375-6.058594-1.359375-8.851562 0l-174.847656 85.535157c-3.476563 1.660156-5.71875 5.132812-5.800782 8.984374v163.648438c0 20.347656 6.644532 43.800781 18.382813 66.023438 11.757812 22.257812 27.609375 40.847656 44.464843 52.335937l116.476563 79.410156c3.410156 2.320313 7.886719 2.320313 11.296875 0l116.609375-79.410156c35.097656-23.917969 62.769531-75.910156 62.769531-118.359375v-163.410156c-.070312-3.839844-2.300781-7.3125-5.765625-8.976563zm-14.234375 172.386719c0 17.238281-5.816406 37.398438-16.0625 56.765625s-23.8125 35.363281-38.054687 45.074219l-110.839844 75.566406-110.992187-75.570312c-29.191407-19.894532-54.050782-66.53125-54.050782-101.835938v-157.414062l164.996094-80.636719 165.003906 80.871093zm0 0"/><path d="m58.878906 229.347656c0 69.847656 56.621094 126.46875 126.46875 126.46875s126.472656-56.621094 126.472656-126.46875-56.625-126.46875-126.472656-126.46875-126.46875 56.621094-126.46875 126.46875zm126.46875-106.46875c58.800782 0 106.472656 47.667969 106.472656 106.46875 0 58.800782-47.671874 106.46875-106.472656 106.46875-58.800781 0-106.46875-47.667968-106.46875-106.46875.066406-58.773437 47.695313-106.40625 106.46875-106.46875zm0 0"/><path d="m174.871094 226.347656h-17.523438c-5.523437 0-10 4.476563-10 10 0 5.523438 4.476563 10 10 10h18v4h-18c-5.523437 0-10 4.476563-10 10 0 5.523438 4.476563 10 10 10h18v12c0 5.523438 4.476563 10 10 10 5.523438 0 10-4.476562 10-10v-12h17c5.523438 0 10-4.476562 10-10 0-5.523437-4.476562-10-10-10h-17v-4h17c5.523438 0 10-4.476562 10-10 0-5.523437-4.476562-10-10-10h-16.523437l33.867187-46.515625c3.210938-4.464843 2.210938-10.683593-2.234375-13.917969-4.445312-3.238281-10.667969-2.277343-13.933593 2.148438l-28.175782 38.695312-28.175781-38.699218c-3.265625-4.425782-9.488281-5.382813-13.933594-2.148438-4.445312 3.238282-5.441406 9.453125-2.234375 13.921875zm0 0"/></g></svg>