<svg height="461pt" viewBox="0 -54 461.54 461" width="461pt" xmlns="http://www.w3.org/2000/svg"><g fill="#f4b844"><path d="m41.769531 352.269531h129v-14h-122v-115h-14v122c0 3.867188 3.132813 7 7 7zm0 0"/><path d="m426.769531 345.269531v-122l-14 .050781v114.949219h-122v14h129c3.867188 0 7-3.132812 7-7zm0 0"/><path d="m412.769531 128.269531h14v-121c0-3.867187-3.132812-7-7-7h-129v14h122zm0 0"/><path d="m48.769531 14.269531h122v-14h-129c-3.867187 0-7 3.132813-7 7v122h14zm0 0"/></g><path d="m419.769531 223.320312c-41.71875 41.058594-110.769531 94.128907-189 94.128907-127.597656 0-230.769531-141.179688-230.769531-141.179688s103.171875-141.179687 230.769531-141.179687c127.601563 0 230.769531 141.179687 230.769531 141.179687s-15.4375 21.140625-41.769531 47.050781zm0 0" fill="#00efd1"/><path d="m343.660156 176.269531c0 62.347657-50.542968 112.890625-112.890625 112.890625-62.347656 0-112.890625-50.542968-112.890625-112.890625 0-62.347656 50.542969-112.890625 112.890625-112.890625 62.347657 0 112.890625 50.542969 112.890625 112.890625zm0 0" fill="#00acea"/></svg>