<svg height="512pt" viewBox="0 -11 512 512" width="512pt" xmlns="http://www.w3.org/2000/svg"><path d="m501 245c0 135.308594-109.691406 245-245 245s-245-109.691406-245-245 109.691406-245 245-245 245 109.691406 245 245zm0 0" fill="#fdd33a"/><path d="m256 96.601562c-141.386719 0-256 124.429688-256 148.398438s114.613281 148.398438 256 148.398438 256-124.429688 256-148.398438-114.613281-148.398438-256-148.398438zm0 0" fill="#7956ba"/><path d="m45 245c0-23.96875 94.46875-148.398438 211-148.398438-141.386719 0-256 124.429688-256 148.398438s114.613281 148.398438 256 148.398438c-116.53125 0-211-124.429688-211-148.398438zm0 0" fill="#4b358e"/><path d="m374 245c0 72.902344-59.097656 132-132 132s-132-59.097656-132-132 59.097656-132 132-132 132 59.097656 132 132zm0 0" fill="#4b358e"/><path d="m388 245c0 72.902344-59.097656 132-132 132s-132-59.097656-132-132 59.097656-132 132-132 132 59.097656 132 132zm0 0" fill="#99d3ff"/><path d="m176 245c0-64 45.550781-117.355469 106-129.433594-8.40625-1.679687-17.097656-2.566406-26-2.566406-72.902344 0-132 59.097656-132 132s59.097656 132 132 132c8.902344 0 17.59375-.886719 26-2.566406-60.449219-12.078125-106-65.433594-106-129.433594zm0 0" fill="#64badd"/><path d="m320.207031 245c0 36.230469-29.371093 65.601562-65.605469 65.601562-36.230468 0-65.601562-29.371093-65.601562-65.601562s29.371094-65.601562 65.601562-65.601562c36.234376 0 65.605469 29.371093 65.605469 65.601562zm0 0" fill="#322277"/><path d="m336 214.628906c0 15.429688-12.511719 27.941406-27.941406 27.941406-15.433594 0-27.941406-12.511718-27.941406-27.941406 0-15.433594 12.507812-27.941406 27.941406-27.941406 15.429687 0 27.941406 12.507812 27.941406 27.941406zm0 0" fill="#dcf3ff"/></svg>